<?xml version="1.0" encoding="UTF-8" standalone="no"?>
<svg
   xmlns:dc="http://purl.org/dc/elements/1.1/"
   xmlns:cc="http://creativecommons.org/ns#"
   xmlns:rdf="http://www.w3.org/1999/02/22-rdf-syntax-ns#"
   xmlns:svg="http://www.w3.org/2000/svg"
   xmlns="http://www.w3.org/2000/svg"
   xmlns:xlink="http://www.w3.org/1999/xlink"
   xmlns:sodipodi="http://sodipodi.sourceforge.net/DTD/sodipodi-0.dtd"
   xmlns:inkscape="http://www.inkscape.org/namespaces/inkscape"
   width="256"
   height="256"
   viewBox="0 0 67.733331 67.733331"
   version="1.1"
   id="svg8"
   inkscape:export-filename="/home/cat/Workspace/rastering/media/icon.png"
   inkscape:export-xdpi="600"
   inkscape:export-ydpi="600"
   inkscape:version="1.0.1 (3bc2e813f5, 2020-09-07)"
   sodipodi:docname="icon.svg">
  <defs
     id="defs2">
    <linearGradient
       inkscape:collect="always"
       id="linearGradient1112">
      <stop
         style="stop-color:#0066ff;stop-opacity:1"
         offset="0"
         id="stop1108" />
      <stop
         style="stop-color:#2a7fff;stop-opacity:0.25199297"
         offset="1"
         id="stop1110" />
    </linearGradient>
    <radialGradient
       inkscape:collect="always"
       xlink:href="#linearGradient1112"
       id="radialGradient1118"
       cx="170.04025"
       cy="86.540482"
       fx="170.04025"
       fy="86.540482"
       r="107.91113"
       gradientTransform="matrix(-2.5129855,-0.39501487,0.53513775,-3.1856389,598.94434,371.06452)"
       gradientUnits="userSpaceOnUse" />
  </defs>
  <sodipodi:namedview
     id="base"
     pagecolor="#ffffff"
     bordercolor="#666666"
     borderopacity="1.0"
     inkscape:pageopacity="0.0"
     inkscape:pageshadow="2"
     inkscape:zoom="1"
     inkscape:cx="163.73165"
     inkscape:cy="52.154561"
     inkscape:document-units="mm"
     inkscape:current-layer="layer1"
     inkscape:document-rotation="0"
     showgrid="false"
     inkscape:pagecheckerboard="true"
     units="px"
     showguides="true"
     inkscape:guide-bbox="true"
     inkscape:snap-global="false"
     inkscape:window-width="1920"
     inkscape:window-height="1055"
     inkscape:window-x="0"
     inkscape:window-y="0"
     inkscape:window-maximized="1">
    <sodipodi:guide
       position="26.225822,63.624062"
       orientation="0,-1"
       id="guide853" />
  </sodipodi:namedview>
  <metadata
     id="metadata5">
    <rdf:RDF>
      <cc:Work
         rdf:about="">
        <dc:format>image/svg+xml</dc:format>
        <dc:type
           rdf:resource="http://purl.org/dc/dcmitype/StillImage" />
        <dc:title></dc:title>
      </cc:Work>
    </rdf:RDF>
  </metadata>
  <g
     inkscape:label="Layer 1"
     inkscape:groupmode="layer"
     id="layer1">
    <path
       id="path1059"
       style="font-style:normal;font-variant:normal;font-weight:bold;font-stretch:normal;font-size:70.6911px;line-height:1.25;font-family:'Source Code Pro';-inkscape-font-specification:'Source Code Pro Bold';letter-spacing:0px;word-spacing:0px;fill:url(#radialGradient1118);fill-opacity:1;stroke:none;stroke-width:18.8227"
       d="M 109.25586 7.4648438 L 109.25586 7.5175781 L 115.77734 7.5175781 L 115.77734 23.765625 L 98.980469 23.765625 L 98.980469 23.761719 L 98.914062 23.761719 L 98.914062 36.548828 L 83.058594 36.548828 L 83.058594 52.796875 L 98.914062 52.796875 L 98.914062 72.496094 L 109.25586 72.496094 L 109.25586 72.507812 L 115.77734 72.507812 L 115.77734 88.755859 L 109.25586 88.755859 L 109.25586 88.777344 L 92.164062 88.777344 L 92.164062 88.755859 L 82.185547 88.755859 L 82.185547 105.00391 L 98.914062 105.00391 L 98.914062 137.50391 L 99.048828 137.50391 L 99.048828 137.5 L 115.8457 137.5 L 115.8457 153.75 L 115.8457 169.99805 L 99.048828 169.99805 L 99.048828 169.99609 L 98.914062 169.99609 L 98.914062 169.99805 L 82.185547 169.99805 L 82.185547 186.24414 L 98.914062 186.24414 L 98.914062 186.29883 L 115.77734 186.29883 L 115.77734 202.49219 L 132.57422 202.49219 L 132.57422 186.29883 L 139.75977 186.29883 L 139.75977 121.83984 L 161.1543 121.83984 L 195.88672 186.29883 L 216.55664 186.29883 L 216.55664 202.49023 L 216.55664 202.85156 L 233.35352 202.85156 L 233.35352 202.49023 L 233.35352 186.29883 L 241.73438 186.29883 L 200.88867 114.70898 C 220.06109 106.20617 233.12109 89.473893 233.12109 63.142578 C 233.12109 20.628483 201.44445 7.4648437 163.09961 7.4648438 L 109.25586 7.4648438 z M 82.185547 88.755859 L 82.185547 72.507812 L 65.388672 72.507812 L 65.388672 88.755859 L 82.185547 88.755859 z M 65.388672 7.5175781 L 65.388672 23.765625 L 82.185547 23.765625 L 82.185547 7.5175781 L 65.388672 7.5175781 z M 132.71484 7.5175781 L 149.50977 7.5175781 L 149.50977 23.765625 L 132.71484 23.765625 L 132.71484 7.5175781 z M 31.794922 23.765625 L 31.794922 40.013672 L 48.591797 40.013672 L 48.591797 23.765625 L 31.794922 23.765625 z M 139.75977 39.554688 L 159.76562 39.554688 C 181.43879 39.554688 192.83203 45.588366 192.83203 63.142578 C 192.83203 80.696787 181.43879 89.748047 159.76562 89.748047 L 139.75977 89.748047 L 139.75977 39.554688 z M 31.794922 72.507812 L 31.794922 88.755859 L 48.591797 88.755859 L 48.591797 72.507812 L 31.794922 72.507812 z M 31.794922 88.755859 L 14.998047 88.755859 L 14.998047 105.00391 L 31.794922 105.00391 L 31.794922 88.755859 z M 48.591797 105.00391 L 48.591797 121.25195 L 65.388672 121.25195 L 65.388672 105.00391 L 48.591797 105.00391 z M 31.794922 137.5 L 31.794922 153.74805 L 31.794922 169.99609 L 48.591797 169.99609 L 48.591797 153.74805 L 48.591797 137.5 L 31.794922 137.5 z M 65.388672 153.74805 L 65.388672 169.99609 L 82.185547 169.99609 L 82.185547 153.74805 L 65.388672 153.74805 z M 14.998047 186.24219 L 14.998047 202.49023 L 31.794922 202.49023 L 31.794922 186.24219 L 14.998047 186.24219 z M 48.591797 186.24219 L 48.591797 202.49023 L 65.388672 202.49023 L 65.388672 186.24219 L 48.591797 186.24219 z M 82.185547 202.49023 L 82.185547 218.73828 L 98.980469 218.73828 L 98.980469 202.49023 L 82.185547 202.49023 z M 149.37109 202.49023 L 149.37109 218.73828 L 166.16797 218.73828 L 166.16797 202.49023 L 149.37109 202.49023 z M 31.794922 218.73828 L 31.794922 234.98633 L 31.794922 251.23438 L 48.591797 251.23438 L 48.591797 234.98633 L 48.591797 218.73828 L 31.794922 218.73828 z M 216.55664 219.05664 L 216.55664 234.98633 L 233.35352 234.98633 L 233.35352 219.05664 L 216.55664 219.05664 z M 98.373047 234.26953 L 98.373047 250.51758 L 115.16992 250.51758 L 115.16992 234.26953 L 98.373047 234.26953 z M 166.16797 234.98633 L 166.16797 251.23438 L 182.96484 251.23438 L 182.96484 234.98633 L 166.16797 234.98633 z "
       transform="scale(0.26458333)" />
  </g>
</svg>
